<svg width="500" height="508" viewBox="0 0 500 508" fill="none" xmlns="http://www.w3.org/2000/svg">
<path fill-rule="evenodd" clip-rule="evenodd" d="M440.435 93.1425C440.087 93.3164 439.913 93.4904 439.565 93.6643C432.783 99.4034 424.435 103.577 416.261 106.708C407.044 110.36 397.652 113.49 388.609 117.838C388.435 117.838 388.435 117.838 388.435 117.838C384.957 119.403 381.826 121.316 378.522 123.229C378.522 123.403 378.522 123.403 378.348 123.403C377.652 123.925 376.957 124.273 376.261 124.621C375.913 124.969 375.739 125.143 375.565 125.316C375.391 125.316 375.391 125.316 375.391 125.316C369.13 129.664 364.087 135.577 360.261 142.012V142.186C354.522 152.099 351.739 163.577 352.087 174.882C352.087 176.099 353.304 176.969 354.522 176.621C354.87 176.447 355.217 176.273 355.391 175.751C362.522 165.316 370.174 154.882 380.435 147.403C382.174 146.186 384.087 144.969 385.826 143.577C385.826 143.577 385.826 143.577 386 143.403C388.261 141.838 390.348 140.447 392.435 139.056C392.609 139.056 392.609 139.056 392.609 139.056V138.882C396.957 136.099 401.478 133.316 406.174 131.229C402 134.36 397.826 137.316 393.826 140.621C393.826 140.621 393.826 140.621 393.652 140.795C392.435 141.664 391.217 142.882 389.826 143.925C389.826 143.925 389.826 143.925 389.652 143.925C389.652 143.925 389.652 143.925 389.652 144.099C387.044 146.36 384.435 148.447 382 151.056C376.435 156.447 371.391 162.36 367.044 169.316C359.739 181.143 354.87 195.403 355.565 209.49C355.565 210.882 356.609 212.099 358 212.099C358.348 212.099 358.522 211.925 358.87 211.925C359.739 211.577 360.783 210.534 360.783 209.49C360.261 202.36 361.478 195.577 363.739 188.969C363.913 188.969 364.087 188.795 364.261 188.621C374.174 182.36 387.044 180.795 397.478 175.403C411.044 168.273 421.652 156.447 428.435 142.708C435.739 127.751 436.435 111.403 442.348 95.9251C443.217 94.186 441.652 92.7947 440.435 93.1425Z" fill="white"/>
<path fill-rule="evenodd" clip-rule="evenodd" d="M420.609 191.751C420.609 192.273 420.609 192.621 420.435 192.969C416.261 205.143 415.739 218.708 415.913 231.23C416.435 245.664 417.131 259.925 416.609 274.36C416.609 274.36 416.609 274.36 416.435 274.36C416.435 274.534 416.435 274.534 416.435 274.534C416.261 279.925 415.565 285.143 414.87 290.534C414.87 290.534 414.696 290.534 414.696 290.708C414.522 291.925 414.348 293.143 414 294.36C414 294.882 413.826 295.23 413.652 295.577C413.652 295.751 413.652 295.751 413.652 295.751C413.652 295.925 413.652 295.925 413.652 295.925C411.218 306.534 406.522 316.447 399.913 325.143C399.913 325.317 399.913 325.317 399.913 325.317L399.739 325.49C389.826 338.36 376.087 348.621 360.783 354.36C359.044 355.056 357.304 353.664 357.131 351.925C356.957 351.403 357.131 350.882 357.478 350.186C367.565 334.882 377.304 319.23 381.478 301.317C382.348 298.36 383.044 295.23 383.739 292.099V291.925C383.739 291.925 383.739 291.751 383.913 291.751C384.609 288.099 385.478 284.447 386.174 280.795C386.174 280.621 386.174 280.621 386.174 280.621C386.174 280.621 386.174 280.447 386.348 280.447C387.565 273.143 388.783 265.49 388.957 258.186C387.217 265.317 385.304 272.621 383.391 279.751C383.391 279.925 383.391 279.925 383.391 279.925V280.099C382.522 282.36 382 284.621 381.131 287.056C381.131 287.23 381.131 287.23 381.131 287.23C379.565 292.099 378 296.621 376.087 301.317C371.913 311.751 366.87 321.838 360.087 331.23C353.652 340.099 345.826 348.447 336.957 355.403C331.913 356.099 326.522 356.621 321.304 356.969C348.435 343.056 332.783 326.534 335.217 294.186C336.957 271.925 347.217 251.403 361.652 234.708C377.478 216.621 399.044 206.882 416.087 190.36C417.652 188.447 420.261 189.664 420.609 191.751ZM334.174 356.969C333.304 357.664 332.435 358.186 331.565 358.882C332.261 358.36 333.131 357.664 334.174 356.969ZM331.391 358.882C330.696 359.577 329.652 360.099 328.783 360.621C329.652 360.099 330.522 359.577 331.391 358.882Z" fill="white"/>
<path fill-rule="evenodd" clip-rule="evenodd" d="M76.2609 106.882C66.6957 98.1863 65.4783 78.1863 81.8261 71.4037C62.1739 55.7515 81.3044 25.8384 102.174 34.3602C101.304 11.4037 131.913 4.62105 141.652 21.6645C156.609 5.66453 182.174 20.9689 178.696 39.5776C252.609 26.8819 339.391 41.1428 292.783 99.9254C292.783 99.9254 292.783 99.9254 292.783 100.099C292.435 100.447 292.087 100.795 291.913 100.969C293.13 112.447 291.913 124.273 289.826 136.273C287.391 164.621 328.783 170.882 316.435 187.578C311.391 194.186 301.826 189.143 299.217 199.925C297.13 207.751 320.087 219.751 298.174 226.708C301.13 228.447 306.174 233.317 306.174 236.099C303.913 237.143 296.609 237.665 294.174 258.36C290.174 293.491 249.478 270.882 230.174 267.404C211.044 263.751 207.391 312.099 233.304 338.186C191.217 319.056 154 272.447 144.435 226.534C138.522 246.36 166.174 319.925 230.87 348.969C261.652 362.708 302.174 363.578 334.696 359.23C188.087 464.621 -18.6956 267.751 92.7826 125.491C82.3478 129.838 66.1739 152.273 56.9565 183.056C57.8261 156.621 64.087 130.882 76.2609 106.882ZM137.304 40.2732C139.565 8.27322 104.609 19.4037 110.696 37.6645C115.391 49.1428 133.13 70.1863 133.13 70.1863C133.13 70.1863 135.391 65.6645 137.304 40.2732ZM107.913 129.143C107.913 129.143 119.739 135.404 126.348 123.056C130.696 111.23 131.739 83.7515 131.739 83.7515C130.87 84.0993 81.6522 116.447 107.913 129.143ZM78.1739 95.7515C78.1739 95.7515 82.3478 108.273 95.7392 103.751C107.043 98.1863 126.522 79.0558 126.522 79.0558C125.826 78.5341 67.5652 68.2732 78.1739 95.7515ZM83.5652 47.9254C83.5652 47.9254 76.6087 59.4037 88.7826 66.5341C100.261 71.4037 127.739 73.8384 127.739 73.8384C127.391 73.3167 97.6522 22.3602 83.5652 47.9254ZM160.783 116.621C156.435 104.795 139.217 83.5776 139.217 83.5776C139.217 83.5776 137.304 89.1428 134.174 113.143C130.522 143.751 165.304 136.795 160.783 116.621ZM143.913 79.2297C143.913 79.2297 169.478 132.795 186.174 108.273C186.174 108.273 193.826 97.4906 182.174 89.3167C171.044 83.4037 143.913 79.2297 143.913 79.2297ZM163.044 24.621C163.044 24.621 151.391 18.3602 144.783 30.708C140.609 42.5341 139.391 69.8384 139.391 69.8384C140.261 69.6645 189.652 37.3167 163.044 24.621ZM191.913 62.8819C191.913 62.8819 189.13 49.8384 175.217 52.795C163.565 57.3167 142.174 74.3602 142.174 74.3602C142.87 74.708 199.565 91.0558 191.913 62.8819Z" fill="white"/>
<path fill-rule="evenodd" clip-rule="evenodd" d="M332.087 52.0994C332.261 52.0994 332.261 52.0994 332.435 52.2733C336.261 55.5776 341.131 57.8385 345.826 59.5776C351.044 61.6646 356.261 63.5776 361.478 65.8385C361.478 66.0124 361.478 66.0124 361.478 66.0124C363.391 66.882 365.304 67.9255 367.044 68.9689C367.565 69.3168 367.913 69.4907 368.261 69.8385C368.435 70.0124 368.609 70.0124 368.783 70.1863C372.435 72.6211 375.217 75.9255 377.478 79.5776C377.478 79.7516 377.478 79.7516 377.478 79.7516C380.609 85.3168 382.348 91.7516 382 98.1863C382 98.882 381.304 99.4037 380.783 99.0559C380.435 99.0559 380.261 98.882 380.087 98.7081C376.087 92.795 371.739 86.882 365.826 82.5342C364.957 81.8385 363.913 81.1429 362.87 80.2733C362.87 80.2733 362.87 80.2733 362.696 80.2733C361.652 79.4037 360.261 78.5342 359.044 77.8385C356.609 76.0994 353.826 74.7081 351.391 73.4907C353.826 75.2298 356.087 76.9689 358.348 78.882H358.522C359.217 79.5776 359.913 80.0994 360.609 80.6211C360.783 80.795 360.783 80.795 360.783 80.795C362.348 82.0124 363.739 83.2298 365.131 84.795C368.261 87.9255 371.044 91.2298 373.652 95.0559C377.826 101.839 380.609 109.839 380.087 117.839C380.087 118.708 379.391 119.404 378.696 119.23C378.522 119.23 378.348 119.23 378.174 119.23C377.652 119.056 377.131 118.36 377.304 117.839C377.478 113.839 376.783 110.012 375.565 106.186C375.391 106.186 375.217 106.012 375.217 106.012C369.652 102.36 362.348 101.491 356.435 98.5342C348.609 94.5342 342.696 87.7516 338.87 80.0994C334.696 71.5776 334.348 62.1863 330.87 53.6646C330.348 52.6211 331.391 51.7516 332.087 52.0994Z" fill="white"/>
<path d="M48.42 493.32L50.67 494.04L47.88 503.13L46.71 507H3.6V504.66C6.93 504.66 8.55 503.94 8.55 500.7V455.97C8.55 452.73 6.93 452.01 3.6 452.01V449.67H46.26L46.98 453.45L48.87 462.9L46.53 463.35C45.45 457.77 44.19 454.71 40.95 454.71H17.55V474.78H35.01C38.25 474.78 38.97 473.43 38.97 470.64H41.31V483.87H38.97C38.97 481.08 38.25 479.73 35.01 479.73H17.55V501.96H41.94C45.18 501.96 46.8 498.72 48.42 493.32ZM147.978 500.79C148.428 504.03 150.498 504.66 153.828 504.66V507H133.488V504.66C137.988 504.66 139.698 504.03 139.248 500.79L133.218 459.03L118.368 507H109.368L94.2476 459.03L88.4876 500.79C88.1276 504.03 89.8376 504.66 94.3376 504.66V507H76.5176V504.66C79.8476 504.66 81.9176 504.03 82.2776 500.79L88.4876 455.88C88.8476 452.64 87.6776 452.01 84.3476 452.01V449.67H100.098L115.308 498.72C115.488 495.48 116.118 491.61 117.558 487.38L130.608 449.67H145.548V452.01C142.218 452.01 141.048 452.64 141.498 455.88L147.978 500.79ZM210.433 475.41C218.083 476.13 227.083 478.2 227.083 490.8C227.083 499.8 220.333 507 207.283 507H181.093V504.66C184.423 504.66 186.043 503.94 186.043 500.7V455.97C186.043 452.73 184.423 452.01 181.093 452.01V449.67H205.753C217.543 449.67 223.933 454.53 223.933 462.99C223.933 471.9 217.993 474.42 210.433 475.41ZM203.593 454.71H195.043V473.79H203.593C211.063 473.79 214.573 469.92 214.573 464.25C214.573 458.13 212.503 454.71 203.593 454.71ZM205.123 501.96C213.763 501.96 217.723 498.09 217.723 490.17C217.723 482.16 212.953 478.65 202.693 478.65H195.043V501.96H205.123ZM299.85 493.32L302.1 494.04L299.31 503.13L298.14 507H255.03V504.66C258.36 504.66 259.98 503.94 259.98 500.7V455.97C259.98 452.73 258.36 452.01 255.03 452.01V449.67H297.69L298.41 453.45L300.3 462.9L297.96 463.35C296.88 457.77 295.62 454.71 292.38 454.71H268.98V474.78H286.44C289.68 474.78 290.4 473.43 290.4 470.64H292.74V483.87H290.4C290.4 481.08 289.68 479.73 286.44 479.73H268.98V501.96H293.37C296.61 501.96 298.23 498.72 299.85 493.32ZM362.969 486.75L378.629 505.29V507H360.359V504.66C366.029 504.66 366.839 504.57 364.769 501.96L343.709 474.42V500.7C343.709 503.94 345.329 504.66 348.659 504.66V507H329.759V504.66C333.089 504.66 334.709 503.94 334.709 500.7V455.97C334.709 452.73 333.089 452.01 329.759 452.01V449.67H355.049C365.669 449.67 372.059 454.8 372.059 463.35C372.059 472.71 364.049 476.67 356.489 476.67C354.149 476.67 352.619 476.49 350.999 475.95L350.819 476.4C354.869 478.83 359.909 483.06 362.969 486.75ZM343.709 463.71C343.709 469.47 348.749 473.07 353.879 473.07C359.999 473.07 362.789 469.2 362.789 464.25C362.789 458.4 360.269 454.71 352.889 454.71H343.709V463.71ZM419.774 500.7C419.774 503.94 421.754 504.66 425.984 504.66V507H404.564V504.66C408.794 504.66 410.774 503.94 410.774 500.7V455.97C410.774 452.73 408.794 452.01 404.564 452.01V449.67H425.984V452.01C421.754 452.01 419.774 452.73 419.774 455.97V500.7ZM485.8 475.5C494.98 478.74 497.32 484.14 497.32 491.07C497.32 501.15 490.03 507.63 476.53 507.63C466.09 507.63 458.8 503.31 455.2 498.45V480.27H457.09C457.63 494.22 466.63 502.86 477.52 502.86C485.17 502.86 489.04 499.08 489.04 493.32C489.04 489 487.24 485.85 481.3 483.78L468.97 479.46C459.88 476.22 456.64 471.72 456.64 464.52C456.64 456.24 463.12 448.77 476.8 448.77C483.73 448.77 490.48 450.93 494.8 454.8L495.7 470.28H493.81C492.19 458.31 485.26 453.54 477.34 453.54C467.98 453.54 464.74 458.04 464.74 462.45C464.74 466.23 466.72 468.66 471.94 470.55L485.8 475.5Z" fill="white"/>
</svg>
