<svg width="6" height="7" viewBox="0 0 6 7" fill="none" xmlns="http://www.w3.org/2000/svg">
<path d="M3.36914 5.75977L3.67383 6.02344C3.99414 5.81641 4.26758 5.51758 4.49414 5.12695C4.7207 4.73242 4.83398 4.35157 4.83398 3.98439C4.83398 3.70312 4.75977 3.50196 4.61133 3.38087C4.4668 3.25587 4.28125 3.19337 4.05469 3.19337C3.86328 3.19337 3.70117 3.26758 3.56836 3.41602C3.43555 3.56445 3.36914 3.73048 3.36914 3.91407C3.36914 4.37501 3.62305 4.60548 4.13086 4.60548L4.1543 4.64649C4.06836 5.03321 3.80664 5.4043 3.36914 5.75977ZM1.20117 5.75977L1.5 6.02344C1.82031 5.81641 2.09375 5.51758 2.32031 5.12695C2.55078 4.73242 2.66602 4.35157 2.66602 3.98439C2.66602 3.70312 2.5918 3.50196 2.44336 3.38087C2.29492 3.25587 2.10938 3.19337 1.88672 3.19337C1.69141 3.19337 1.52734 3.26758 1.39453 3.41602C1.26562 3.56445 1.20117 3.73048 1.20117 3.91407C1.20117 4.37501 1.45312 4.60548 1.95703 4.60548L1.98047 4.64649C1.90234 5.0254 1.64258 5.39648 1.20117 5.75977ZM1.91016 6.32227H1.48828L0.837891 5.75977C1.27148 5.39258 1.55273 5.08399 1.68164 4.83399C1.20117 4.75587 0.960938 4.44923 0.960938 3.91407C0.960938 3.66407 1.04883 3.44141 1.22461 3.24609C1.40039 3.05078 1.62109 2.95312 1.88672 2.95312C2.07812 2.95312 2.21094 2.95509 2.28516 2.95899C2.36328 2.9629 2.47656 2.97853 2.625 3.00587C2.77734 3.03321 2.90039 3.08789 2.99414 3.16992C3.08789 3.24805 3.16602 3.35156 3.22852 3.48047C3.41992 3.12891 3.69531 2.95312 4.05469 2.95312C4.27344 2.95312 4.45312 2.96289 4.59375 2.98242C4.73828 3.00195 4.88672 3.04493 5.03906 3.11134C5.19141 3.17384 5.30469 3.27735 5.37891 3.42189C5.45703 3.56642 5.49609 3.75392 5.49609 3.98439C5.49609 4.38282 5.35547 4.81056 5.07422 5.26759C4.79688 5.72462 4.46484 6.07617 4.07812 6.32227H3.66211L3.01172 5.75977C3.44531 5.39258 3.72461 5.08399 3.84961 4.83399C3.57227 4.78712 3.37305 4.66798 3.25195 4.47657C3.16211 4.82032 2.99023 5.16407 2.73633 5.50782C2.48633 5.85157 2.21094 6.12305 1.91016 6.32227Z" fill="#453E21"/>
</svg>
